# xmcd
#
# Track frame offsets:
#	150
#	16507
#	30205
#	45335
#	59132
#	73432
#	84910
#	101867
#	114640
#	131527
#	145575
#	162242
#	181390
#	198262
#
# Disc length: 2825 seconds
#
# Revision: 0
# Processed by: cddbd v1.5.2PL0 Copyright (c) Steve Scherf et al.
# Submitted via: audiograbber 1.83.01
#
DISCID=b70b070e
DTITLE=JT KANEHIRA  - TEXAS TORNADO AUCD-1002
DYEAR=1998
DGENRE=Country
TTITLE0=DON'T TAKE HER SHE'S ALL I GOT
TTITLE1=ONE TWO, I LOVE YOU
TTITLE2=TEXAS TORNADO
TTITLE3=SAVE THE LAST DANCE FOR ME
TTITLE4=I LIKE IT, I LOVE IT
TTITLE5=YOUR HEART TURNED LEFT
TTITLE6=ALL MY EX'S LIVIN' IN TEXAS
TTITLE7=TWO DOLLARS IN THE JUKEBOX
TTITLE8=ONE NIGHT AT A TIME
TTITLE9=CHASIN' THE NEON RAINBOW
TTITLE10=TOO COLD AT HOME
TTITLE11=BARTENDER'S BLUES
TTITLE12=ONE NIGHT AT A TIME (KARAOKE)
TTITLE13=SAVE THE LAST DANCE FOR ME (KARAOKE)
EXTD=
EXTT0=
EXTT1=
EXTT2=
EXTT3=
EXTT4=
EXTT5=
EXTT6=
EXTT7=
EXTT8=
EXTT9=
EXTT10=
EXTT11=
EXTT12=
EXTT13=
PLAYORDER=
